:SAMPLES-PER-SECOND 30
:FULLY-SPECIFIED
:DEGREES
382
root  -2.84931 40.887 0.520788 -27.5571 -88.879 25.1004
RightUpLeg  6.4405 -2.47999 -1.95259
RightLeg  -0.269824 -19.6964 0.360281
RightFoot  -2.24652 -0.280267 3.35943
RightToes  -3.13006e-008 1.75238e-005 3.56266e-009
Spine  -9.36986 -1.14675 -0.5043
Spine1  15.6953 -0.446566 -2.49505
HEad  -13.9611 4.18061 -7.9189
LeftShoulder1  3.81301 -8.1791 -26.5359
LeftArm  -32.3809 -21.8895 -45.4746
LeftForeArm  73.5915 -79.4768 -77.8366
LeftHand  -0.940876 -1.62138 15.6968
RightShoulder  4.03839 8.37453 28.0207
RightArm  -15.4962 9.91463 35.0946
RightForeArm  110.417 79.35 109.516
RightHand  -0.730755 7.60159 -6.87485
LeftUpLeg  5.29366 1.616 2.20076
LeftLeg  -0.461954 10.6955 -0.645615
LeftFoot  -1.42937 0.267192 -2.90082
LeftToes  4.76866e-008 1.46233e-008 1.30548e-009
383
root  -2.85425 40.8852 0.548353 -49.345 -89.2158 46.8895
RightUpLeg  6.30181 -2.53182 -2.0657
RightLeg  -0.0897032 -19.1302 0.317428
RightFoot  -2.29935 -0.287149 3.45258
RightToes  -3.13006e-008 1.75238e-005 3.56266e-009
Spine  -9.57438 -1.39367 -0.308662
Spine1  15.9061 -0.489663 -2.87517
HEad  -14.165 4.97479 -7.70904
LeftShoulder1  3.66089 -7.86081 -26.0916
LeftArm  -35.1435 -22.7876 -43.4206
LeftForeArm  85.5727 -80.0498 -76.9878
LeftHand  -1.27236 -2.2748 19.319
RightShoulder  4.19325 8.66921 28.484
RightArm  -15.3629 9.23886 35.2956
RightForeArm  111.701 79.4209 109.446
RightHand  -0.748862 7.88439 -6.89818
LeftUpLeg  5.38938 1.63043 2.13452
LeftLeg  -0.510082 11.1941 -0.70544
LeftFoot  -1.48407 0.264177 -2.872
LeftToes  4.76866e-008 1.46233e-008 1.30548e-009
384
root  -2.8502 40.8854 0.585791 -110.31 -89.4474 107.956
RightUpLeg  6.00001 -2.51089 -2.15772
RightLeg  0.103113 -18.3644 0.21912
RightFoot  -2.27537 -0.293707 3.53471
RightToes  -3.13006e-008 1.75238e-005 3.56266e-009
Spine  -9.59232 -1.22192 0.0536794
Spine1  15.866 -0.279398 -3.14279
HEad  -14.3128 5.07801 -7.37385
LeftShoulder1  3.47694 -7.4353 -25.6516
LeftArm  -38.0643 -24.5894 -40.6359
LeftForeArm  96.7551 -80.5796 -76.2023
LeftHand  -1.67931 -2.97346 23.3064
RightShoulder  4.22942 8.74571 28.5652
RightArm  -15.4332 8.42933 35.3341
RightForeArm  113.171 79.2983 111.13
RightHand  -0.714854 8.06325 -6.52308
LeftUpLeg  5.40794 1.60124 2.04182
LeftLeg  -0.586128 11.9851 -0.748513
LeftFoot  -1.49488 0.266301 -2.92321
LeftToes  4.76866e-008 1.46233e-008 1.30548e-009
385
root  -2.83539 40.8864 0.623142 -147.036 -89.1297 144.746
RightUpLeg  5.82629 -2.48593 -2.21469
RightLeg  0.156932 -17.8883 0.17952
RightFoot  -2.23301 -0.297896 3.57242
RightToes  -3.13006e-008 1.75238e-005 3.56266e-009
Spine  -9.24387 -1.11813 0.0153109
Spine1  15.5342 -0.26848 -2.86018
HEad  -14.5798 5.60641 -6.82873
LeftShoulder1  3.42267 -7.37995 -25.2894
LeftArm  -41.5477 -26.5381 -36.8757
LeftForeArm  107.423 -81.0542 -76.7402
LeftHand  -1.91024 -2.88822 26.6515
RightShoulder  4.17919 8.62715 28.4874
RightArm  -15.5489 7.42346 35.3244
RightForeArm  114.074 79.2257 112.092
RightHand  -0.724023 8.28345 -6.50253
LeftUpLeg  5.36263 1.52336 1.9446
LeftLeg  -0.545526 12.5516 -0.694523
LeftFoot  -1.55305 0.26869 -2.97902
LeftToes  4.76866e-008 1.46233e-008 1.30548e-009
386
root  -2.83259 40.8875 0.642437 -157.516 -88.7352 155.382
RightUpLeg  5.59259 -2.44954 -2.24138
RightLeg  0.148639 -17.4693 0.147496
RightFoot  -2.1733 -0.299863 3.55221
RightToes  -3.13006e-008 1.75238e-005 3.56266e-009
Spine  -8.86696 -1.00851 -0.242632
Spine1  14.9091 -0.24949 -2.48758
HEad  -14.5459 5.14669 -5.91081
LeftShoulder1  3.15072 -6.84602 -24.2455
LeftArm  -44.2575 -28.7568 -33.3717
LeftForeArm  111.836 -81.2417 -76.3749
LeftHand  -1.86757 -2.14211 28.5215
RightShoulder  4.17768 8.56898 28.6456
RightArm  -15.3692 6.34729 35.0182
RightForeArm  114.421 79.1204 113.062
RightHand  -0.804998 8.29337 -7.18481
LeftUpLeg  5.32156 1.47656 1.87043
LeftLeg  -0.724036 13.1044 -0.744724
LeftFoot  -1.47952 0.259606 -2.85719
LeftToes  4.76866e-008 1.46233e-008 1.30548e-009
387
root  -2.81595 40.8948 0.654105 -164.956 -88.2481 162.993
RightUpLeg  5.2925 -2.27334 -2.1733
RightLeg  0.166432 -17.0862 0.00750107
RightFoot  -2.06052 -0.318701 3.75166
RightToes  -3.13006e-008 1.75238e-005 3.56266e-009
Spine  -8.62124 -0.765391 -0.757534
Spine1  14.4138 -0.142069 -1.84753
HEad  -14.1477 4.4343 -4.54246
LeftShoulder1  3.00329 -6.62203 -23.4206
LeftArm  -47.3377 -30.7806 -29.015
LeftForeArm  112.421 -81.2681 -73.704
LeftHand  -1.75286 -1.53094 29.0998
RightShoulder  4.16446 8.4825 28.7895
RightArm  -15.4198 5.05456 34.4982
RightForeArm  114.191 79.1041 113.097
RightHand  -0.829939 8.18706 -7.44783
LeftUpLeg  5.30902 1.50619 1.88361
LeftLeg  -1.01024 13.5958 -0.885207
LeftFoot  -1.35989 0.255518 -2.81484
LeftToes  4.76866e-008 1.46233e-008 1.30548e-009
388
root  -2.79988 40.9015 0.683827 -170.124 -87.8963 168.299
RightUpLeg  5.13398 -2.16828 -2.11846
RightLeg  0.0238119 -16.812 0.0353793
RightFoot  -1.87318 -0.319499 3.69741
RightToes  -3.13006e-008 1.75238e-005 3.56266e-009
Spine  -8.35563 -0.628488 -1.21294
Spine1  14.0272 -0.167733 -1.18208
HEad  -14.2025 4.20738 -2.91943
LeftShoulder1  2.83225 -6.35396 -22.4293
LeftArm  -51.0192 -33.2077 -25.2103
LeftForeArm  106.171 -80.8634 -65.2146
LeftHand  -1.82853 -2.34614 27.1839
RightShoulder  4.17243 8.52752 28.723
RightArm  -15.6237 3.72921 34.1575
RightForeArm  113.297 79.1182 112.638
RightHand  -0.818152 8.47473 -7.20532
LeftUpLeg  5.2651 1.52827 1.92619
LeftLeg  -1.18584 13.9423 -0.943763
LeftFoot  -1.28544 0.25204 -2.77494
LeftToes  4.76866e-008 1.46233e-008 1.30548e-009
